# xmcd CD database file
#
# Track frame offsets:
#	150
#	19352
#	32503
#	50261
#	71620
#	90402
#	109660
#	123857
#	139245
#	161638
#	189111
#	208043
#	226035
#	247841
#	269566
#
# Disc length: 3598 seconds
#
# Revision: 1
# Processed by: cddbd v1.5.2PL0 Copyright (c) Steve Scherf et al.
# Submitted via: CDex 1.51
#
DISCID=c00e0c0f
DTITLE=Steve Baker and Dick Bird - King Kazoo
DYEAR=2008
DGENRE=Blues
TTITLE0=I'll Never Let You Go
TTITLE1=Glad I Got You
TTITLE2=King Kazzo
TTITLE3=Fishing Blues
TTITLE4=Hair Parted In The Middle
TTITLE5=Sliding Delta
TTITLE6=Harmonica Stomp
TTITLE7=Nine Pound Hammer
TTITLE8=Too Long
TTITLE9=Cool Operator
TTITLE10=No Doubt About It
TTITLE11=Slow Down
TTITLE12=Bottle Up And Go
TTITLE13=Great Dreams From Heaven
TTITLE14=Delta
EXTD=YEAR: 2008
EXTT0=
EXTT1=
EXTT2=
EXTT3=
EXTT4=
EXTT5=
EXTT6=
EXTT7=
EXTT8=
EXTT9=
EXTT10=
EXTT11=
EXTT12=
EXTT13=
EXTT14=
PLAYORDER=
